<svg width="17" height="16" viewBox="0 0 17 16" fill="none" xmlns="http://www.w3.org/2000/svg">
<path fill-rule="evenodd" clip-rule="evenodd" d="M16.5 16H13.3V10.4008C13.3 8.86478 12.6224 8.00781 11.4072 8.00781C10.0848 8.00781 9.3 8.90078 9.3 10.4008V16H6.1V5.6H9.3V6.76953C9.3 6.76953 10.304 5.00781 12.5664 5.00781C14.8296 5.00781 16.5 6.38888 16.5 9.24648V16ZM2.4536 3.93672C1.3744 3.93672 0.5 3.05517 0.5 1.96797C0.5 0.881569 1.3744 0 2.4536 0C3.532 0 4.4064 0.881569 4.4064 1.96797C4.4072 3.05517 3.532 3.93672 2.4536 3.93672ZM0.5 16H4.5V5.6H0.5V16Z" fill="white"/>
</svg>
