<svg width="23" height="22" viewBox="0 0 23 22" fill="none" xmlns="http://www.w3.org/2000/svg">
<path d="M11.3 2.45C7.57211 2.45 4.55005 4.61913 4.55005 7.85C4.55005 10.2971 7.18367 15.1002 8.74459 16.85H13.8555C15.4164 15.1002 18.05 10.2971 18.05 7.85C18.05 4.61913 15.028 2.45 11.3 2.45Z" stroke="white" stroke-linecap="round" stroke-linejoin="round"/>
<path d="M11.3 2.45C9.06323 2.45 7.25 4.61913 7.25 7.85C7.25 10.2971 8.83017 15.1002 9.76671 16.85" stroke="white" stroke-linecap="round" stroke-linejoin="round"/>
<path d="M11.3 2.45C13.5368 2.45 15.35 4.61913 15.35 7.85C15.35 10.2971 13.7699 15.1002 12.8333 16.85" stroke="white" stroke-linecap="round" stroke-linejoin="round"/>
<path d="M11.3 2.45C10.5543 2.45 9.94995 4.61913 9.94995 7.85C9.94995 10.2971 10.4767 15.1002 10.7888 16.85" stroke="white" stroke-linecap="round" stroke-linejoin="round"/>
<path d="M11.3 2.45C12.0457 2.45 12.65 4.61913 12.65 7.85C12.65 10.2971 12.1233 15.1002 11.8112 16.85" stroke="white" stroke-linecap="round" stroke-linejoin="round"/>
<path d="M14 16.6865V19.55H8.59998V16.6865" stroke="white" stroke-linecap="round" stroke-linejoin="round"/>
</svg>
