<svg width="19" height="17" viewBox="0 0 19 17" fill="none" xmlns="http://www.w3.org/2000/svg">
<mask id="path-1-inside-1_42_680" fill="white">
<path d="M0.543886 0L7.49348 9.29227L0.5 16.8473H2.07395L8.19674 10.2328L13.1438 16.8473H18.5L11.1594 7.03233L17.6689 0H16.0949L10.4561 6.09185L5.90011 0H0.543886ZM2.8585 1.15938H5.31916L16.185 15.6877H13.7244L2.8585 1.15938Z"/>
</mask>
<path d="M0.543886 0L7.49348 9.29227L0.5 16.8473H2.07395L8.19674 10.2328L13.1438 16.8473H18.5L11.1594 7.03233L17.6689 0H16.0949L10.4561 6.09185L5.90011 0H0.543886ZM2.8585 1.15938H5.31916L16.185 15.6877H13.7244L2.8585 1.15938Z" fill="#79B2F2"/>
<path d="M0.543886 0V-2H-3.44937L-1.05773 1.19784L0.543886 0ZM7.49348 9.29227L8.96119 10.6509L10.0928 9.42843L9.09511 8.09443L7.49348 9.29227ZM0.5 16.8473L-0.967704 15.4887L-4.0767 18.8473H0.5V16.8473ZM2.07395 16.8473V18.8473H2.94796L3.54167 18.2059L2.07395 16.8473ZM8.19674 10.2328L9.79834 9.0349L8.36018 7.11199L6.72902 8.87415L8.19674 10.2328ZM13.1438 16.8473L11.5422 18.0451L12.1421 18.8473H13.1438V16.8473ZM18.5 16.8473V18.8473H22.4933L20.1016 15.6494L18.5 16.8473ZM11.1594 7.03233L9.69166 5.67374L8.56009 6.8962L9.55777 8.23018L11.1594 7.03233ZM17.6689 0L19.1366 1.3586L22.2455 -2H17.6689V0ZM16.0949 0V-2H15.2209L14.6272 -1.35858L16.0949 0ZM10.4561 6.09185L8.85451 7.28968L10.2927 9.21267L11.9239 7.45043L10.4561 6.09185ZM5.90011 0L7.50173 -1.19783L6.9018 -2H5.90011V0ZM2.8585 1.15938V-0.840624H-1.13481L1.25689 2.35723L2.8585 1.15938ZM5.31916 1.15938L6.92077 -0.0384786L6.32084 -0.840624H5.31916V1.15938ZM16.185 15.6877V17.6877H20.1783L17.7866 14.4899L16.185 15.6877ZM13.7244 15.6877L12.1228 16.8856L12.7227 17.6877H13.7244V15.6877ZM-1.05773 1.19784L5.89186 10.4901L9.09511 8.09443L2.14551 -1.19784L-1.05773 1.19784ZM6.02578 7.93365L-0.967704 15.4887L1.9677 18.2059L8.96119 10.6509L6.02578 7.93365ZM0.5 18.8473H2.07395V14.8473H0.5V18.8473ZM3.54167 18.2059L9.66445 11.5914L6.72902 8.87415L0.606235 15.4887L3.54167 18.2059ZM6.59513 11.4306L11.5422 18.0451L14.7454 15.6494L9.79834 9.0349L6.59513 11.4306ZM13.1438 18.8473H18.5V14.8473H13.1438V18.8473ZM20.1016 15.6494L12.761 5.83449L9.55777 8.23018L16.8984 18.0451L20.1016 15.6494ZM12.6271 8.39093L19.1366 1.3586L16.2011 -1.3586L9.69166 5.67374L12.6271 8.39093ZM17.6689 -2H16.0949V2H17.6689V-2ZM14.6272 -1.35858L8.98839 4.73327L11.9239 7.45043L17.5627 1.35858L14.6272 -1.35858ZM12.0578 4.89401L7.50173 -1.19783L4.29849 1.19783L8.85451 7.28968L12.0578 4.89401ZM5.90011 -2H0.543886V2H5.90011V-2ZM2.8585 3.15938H5.31916V-0.840624H2.8585V3.15938ZM3.71755 2.35723L14.5834 16.8856L17.7866 14.4899L6.92077 -0.0384786L3.71755 2.35723ZM16.185 13.6877H13.7244V17.6877H16.185V13.6877ZM15.326 14.4899L4.46011 -0.0384788L1.25689 2.35723L12.1228 16.8856L15.326 14.4899Z" fill="white" mask="url(#path-1-inside-1_42_680)"/>
</svg>
